<?xml version="1.0" standalone="no"?>
<!DOCTYPE svg PUBLIC "-//W3C//DTD SVG 20010904//EN"
 "http://www.w3.org/TR/2001/REC-SVG-20010904/DTD/svg10.dtd">
<svg version="1.0" xmlns="http://www.w3.org/2000/svg"
 width="260.000000pt" height="260.000000pt" viewBox="0 0 260.000000 260.000000"
 preserveAspectRatio="xMidYMid meet">
<metadata>
Created by potrace 1.11, written by Peter Selinger 2001-2013
</metadata>
<g transform="translate(0.000000,260.000000) scale(0.100000,-0.100000)"
fill="#000000" stroke="none">
<path d="M0 1300 l0 -1300 1300 0 1300 0 0 1300 0 1300 -1300 0 -1300 0 0
-1300z m1920 1002 c117 -41 183 -83 265 -166 128 -129 179 -254 179 -436 0
-173 -58 -305 -194 -441 -130 -131 -265 -189 -440 -189 -105 0 -179 18 -290
71 -145 69 -270 215 -326 379 -15 43 -19 83 -18 180 0 109 4 134 26 192 39
104 86 173 171 255 83 79 185 137 297 168 76 21 255 14 330 -13z m-1424 -12
c71 -62 196 -106 275 -97 61 7 103 29 156 79 60 59 72 39 20 -34 -70 -101
-153 -185 -203 -204 -63 -24 -158 -15 -258 24 -44 17 -82 30 -83 28 -3 -3 -62
-340 -63 -356 0 -2 17 12 38 32 66 64 94 73 217 73 103 0 114 -2 176 -31 120
-57 188 -142 210 -260 30 -165 -79 -357 -248 -436 -155 -73 -396 -36 -469 72
-33 48 -33 112 1 145 20 21 34 25 80 25 46 0 60 -4 81 -25 23 -23 24 -29 18
-90 -11 -110 30 -153 135 -140 46 6 62 13 92 44 54 54 70 117 76 296 7 215
-23 322 -101 359 -44 21 -138 21 -182 0 -43 -20 -98 -82 -126 -139 -23 -48
-54 -63 -45 -22 3 12 29 172 58 355 l53 332 29 0 c18 0 42 -11 63 -30z m-6
-1744 l0 -245 33 -4 c17 -2 4 -5 -30 -5 -58 -2 -63 0 -63 19 0 21 -1 21 -26
-5 -74 -73 -214 16 -214 136 0 61 20 100 67 133 53 35 106 34 144 -4 l29 -29
0 118 0 119 -27 4 c-16 2 -2 5 30 6 l57 1 0 -244z m350 34 c24 -24 26 -53 5
-70 -26 -22 -50 -8 -50 30 0 43 -24 51 -54 19 -30 -32 -41 -81 -41 -176 l0
-82 33 -4 c17 -2 -8 -4 -58 -4 -49 0 -78 2 -62 4 l27 4 0 139 0 139 -27 4
c-16 2 -2 5 30 6 l57 1 0 -32 c1 -30 2 -31 12 -13 29 54 92 71 128 35z m268 0
c18 -11 40 -36 48 -55 27 -65 26 -65 -97 -65 l-112 0 6 -56 c7 -71 27 -101 72
-110 47 -8 92 11 116 50 10 17 19 25 19 18 0 -8 -15 -29 -34 -48 -29 -29 -41
-34 -81 -34 -91 0 -165 71 -165 159 0 60 51 132 110 154 32 12 87 6 118 -13z
m305 8 c13 -2 17 -11 17 -43 l-1 -40 -20 37 c-23 45 -60 58 -98 37 -29 -16
-40 -60 -19 -76 7 -6 36 -18 65 -27 75 -25 103 -50 103 -92 0 -72 -51 -111
-129 -99 -25 3 -56 7 -68 8 -21 2 -23 7 -23 52 l1 50 16 -30 c25 -47 43 -64
78 -71 51 -9 77 10 73 54 -2 28 -9 39 -27 47 -87 35 -126 61 -132 88 -18 67
34 121 106 112 22 -3 48 -6 58 -7z m300 0 c13 -2 17 -11 17 -43 l-1 -40 -20
37 c-23 45 -60 58 -98 37 -29 -16 -40 -60 -19 -76 7 -6 36 -18 65 -27 75 -25
103 -50 103 -92 0 -72 -51 -111 -129 -99 -25 3 -56 7 -68 8 -21 2 -23 7 -23
52 l1 50 16 -30 c25 -47 43 -64 78 -71 51 -9 77 10 73 54 -2 28 -9 39 -27 47
-87 35 -126 61 -132 88 -18 67 34 121 106 112 22 -3 48 -6 58 -7z m345 -8 c18
-11 40 -36 48 -55 27 -65 26 -65 -97 -65 l-112 0 6 -56 c7 -71 27 -101 72
-110 47 -8 92 11 116 50 10 17 19 25 19 18 0 -8 -15 -29 -34 -48 -29 -29 -41
-34 -81 -34 -91 0 -165 71 -165 159 0 60 51 132 110 154 32 12 87 6 118 -13z
m305 8 c13 -2 17 -11 17 -43 l-1 -40 -20 37 c-23 45 -60 58 -98 37 -29 -16
-40 -60 -19 -76 7 -6 36 -18 65 -27 75 -25 103 -50 103 -92 0 -72 -51 -111
-129 -99 -25 3 -56 7 -68 8 -21 2 -23 7 -23 52 l1 50 16 -30 c25 -47 43 -64
78 -71 51 -9 77 10 73 54 -2 28 -9 39 -27 47 -87 35 -126 61 -132 88 -18 67
34 121 106 112 22 -3 48 -6 58 -7z"/>
<path d="M1608 2287 c-92 -26 -164 -104 -198 -214 -29 -96 -44 -274 -36 -458
9 -250 42 -372 121 -448 64 -62 187 -89 313 -67 154 26 230 117 262 316 15 90
15 489 0 579 -22 136 -93 242 -188 282 -50 21 -213 27 -274 10z"/>
<path d="M289 571 c-22 -17 -24 -28 -27 -118 -3 -110 7 -142 51 -157 40 -14
79 3 99 44 22 43 24 147 3 195 -22 54 -83 71 -126 36z"/>
<path d="M993 575 c-11 -8 -24 -27 -27 -42 -4 -16 -9 -36 -12 -45 -5 -16 3
-18 72 -18 l77 0 -7 48 c-9 68 -53 92 -103 57z"/>
<path d="M1943 575 c-11 -8 -24 -27 -27 -42 -4 -16 -9 -36 -12 -45 -5 -16 3
-18 72 -18 l77 0 -7 48 c-9 68 -53 92 -103 57z"/>
</g>
</svg>
